solid ascii
  facet normal -1.702467e-001 -1.470434e-016 9.854015e-001
    outer loop
      vertex   7.728160e+001 -1.396562e+001 4.225111e+000
      vertex   7.728160e+001 1.401937e+002 4.225111e+000
      vertex   -3.962605e+001 1.401937e+002 -1.597289e+001
    endloop
  endfacet
  facet normal 1.553157e-017 1.299100e-001 9.915258e-001
    outer loop
      vertex   1.176253e+002 1.493464e+002 -1.717208e+001
      vertex   -3.257746e+001 1.401937e+002 -1.597289e+001
      vertex   8.433020e+001 -1.396562e+001 4.225111e+000
    endloop
  endfacet
  facet normal 1.952739e-015 1.299100e-001 9.915258e-001
    outer loop
      vertex   -6.882030e+001 1.493464e+002 -1.717208e+001
      vertex   -3.962605e+001 1.401937e+002 -1.597289e+001
      vertex   -3.257746e+001 1.401937e+002 -1.597289e+001
    endloop
  endfacet
  facet normal 0.000000e+000 1.299100e-001 9.915258e-001
    outer loop
      vertex   -3.257746e+001 1.401937e+002 -1.597289e+001
      vertex   1.176253e+002 1.493464e+002 -1.717208e+001
      vertex   -6.882030e+001 1.493464e+002 -1.717208e+001
    endloop
  endfacet
  facet normal 2.166174e-017 1.299100e-001 9.915258e-001
    outer loop
      vertex   -6.882030e+001 -1.396562e+001 4.225111e+000
      vertex   7.728160e+001 -1.396562e+001 4.225111e+000
      vertex   -3.962605e+001 1.401937e+002 -1.597289e+001
    endloop
  endfacet
  facet normal -5.467772e-016 1.299100e-001 9.915258e-001
    outer loop
      vertex   -3.962605e+001 1.401937e+002 -1.597289e+001
      vertex   -6.882030e+001 1.493464e+002 -1.717208e+001
      vertex   -6.882030e+001 -1.396562e+001 4.225111e+000
    endloop
  endfacet
  facet normal -4.087455e-016 1.299100e-001 9.915258e-001
    outer loop
      vertex   8.433020e+001 -1.396562e+001 4.225111e+000
      vertex   1.176253e+002 -1.396562e+001 4.225111e+000
      vertex   1.176253e+002 1.493464e+002 -1.717208e+001
    endloop
  endfacet
  facet normal 1.702467e-001 -1.763887e-016 -9.854015e-001
    outer loop
      vertex   8.433020e+001 -1.396562e+001 4.225111e+000
      vertex   -3.257746e+001 1.401937e+002 -1.597289e+001
      vertex   8.433020e+001 1.401937e+002 4.225111e+000
    endloop
  endfacet
  facet normal 1.000000e+000 0.000000e+000 -0.000000e+000
    outer loop
      vertex   1.176253e+002 1.491905e+002 -1.836191e+001
      vertex   1.176253e+002 1.493464e+002 -1.717208e+001
      vertex   1.176253e+002 -1.396562e+001 4.225111e+000
    endloop
  endfacet
  facet normal 1.000000e+000 0.000000e+000 0.000000e+000
    outer loop
      vertex   1.176253e+002 -1.396562e+001 4.225111e+000
      vertex   1.176253e+002 -2.320279e+001 4.225111e+000
      vertex   1.176253e+002 1.491905e+002 -1.836191e+001
    endloop
  endfacet
  facet normal -1.000000e+000 0.000000e+000 0.000000e+000
    outer loop
      vertex   -6.882030e+001 1.491905e+002 -1.836191e+001
      vertex   -6.882030e+001 -2.320279e+001 4.225111e+000
      vertex   -6.882030e+001 -1.396562e+001 4.225111e+000
    endloop
  endfacet
  facet normal -1.000000e+000 0.000000e+000 0.000000e+000
    outer loop
      vertex   -6.882030e+001 -1.396562e+001 4.225111e+000
      vertex   -6.882030e+001 1.493464e+002 -1.717208e+001
      vertex   -6.882030e+001 1.491905e+002 -1.836191e+001
    endloop
  endfacet
  facet normal 0.000000e+000 9.915258e-001 -1.299100e-001
    outer loop
      vertex   1.176253e+002 1.493464e+002 -1.717208e+001
      vertex   1.176253e+002 1.491905e+002 -1.836191e+001
      vertex   -6.882030e+001 1.491905e+002 -1.836191e+001
    endloop
  endfacet
  facet normal 0.000000e+000 9.915258e-001 -1.299100e-001
    outer loop
      vertex   -6.882030e+001 1.491905e+002 -1.836191e+001
      vertex   -6.882030e+001 1.493464e+002 -1.717208e+001
      vertex   1.176253e+002 1.493464e+002 -1.717208e+001
    endloop
  endfacet
  facet normal 0.000000e+000 -1.299100e-001 -9.915258e-001
    outer loop
      vertex   -6.882030e+001 1.491905e+002 -1.836191e+001
      vertex   1.176253e+002 1.491905e+002 -1.836191e+001
      vertex   -3.958251e+001 1.401937e+002 -1.718315e+001
    endloop
  endfacet
  facet normal -3.745791e-016 -1.299100e-001 -9.915258e-001
    outer loop
      vertex   1.176253e+002 1.491905e+002 -1.836191e+001
      vertex   1.176253e+002 -2.320279e+001 4.225111e+000
      vertex   8.433020e+001 -2.320279e+001 4.225111e+000
    endloop
  endfacet
  facet normal -7.868833e-016 -1.299100e-001 -9.915258e-001
    outer loop
      vertex   -6.882030e+001 -2.320279e+001 4.225111e+000
      vertex   -6.882030e+001 1.491905e+002 -1.836191e+001
      vertex   -4.663111e+001 1.401937e+002 -1.718315e+001
    endloop
  endfacet
  facet normal -6.417511e-017 -1.299100e-001 -9.915258e-001
    outer loop
      vertex   8.433020e+001 -2.320279e+001 4.225111e+000
      vertex   -3.958251e+001 1.401937e+002 -1.718315e+001
      vertex   1.176253e+002 1.491905e+002 -1.836191e+001
    endloop
  endfacet
  facet normal 3.904377e-015 -1.299100e-001 -9.915258e-001
    outer loop
      vertex   -3.958251e+001 1.401937e+002 -1.718315e+001
      vertex   -4.663111e+001 1.401937e+002 -1.718315e+001
      vertex   -6.882030e+001 1.491905e+002 -1.836191e+001
    endloop
  endfacet
  facet normal 1.621131e-016 -1.299100e-001 -9.915258e-001
    outer loop
      vertex   -4.663111e+001 1.401937e+002 -1.718315e+001
      vertex   7.728160e+001 -2.320279e+001 4.225111e+000
      vertex   -6.882030e+001 -2.320279e+001 4.225111e+000
    endloop
  endfacet
  facet normal -4.041585e-016 1.490191e-016 -1.000000e+000
    outer loop
      vertex   8.433020e+001 1.401937e+002 4.225111e+000
      vertex   1.358364e+002 1.401937e+002 4.225111e+000
      vertex   1.176253e+002 -1.396562e+001 4.225111e+000
    endloop
  endfacet
  facet normal -5.689043e-015 -2.910873e-015 -1.000000e+000
    outer loop
      vertex   1.358364e+002 -5.492117e+001 4.225111e+000
      vertex   1.176253e+002 -2.320279e+001 4.225111e+000
      vertex   1.176253e+002 -1.396562e+001 4.225111e+000
    endloop
  endfacet
  facet normal 8.573061e-016 0.000000e+000 -1.000000e+000
    outer loop
      vertex   1.176253e+002 -1.396562e+001 4.225111e+000
      vertex   1.358364e+002 1.401937e+002 4.225111e+000
      vertex   1.358364e+002 -5.492117e+001 4.225111e+000
    endloop
  endfacet
  facet normal 5.731161e-016 -5.469143e-017 -1.000000e+000
    outer loop
      vertex   8.433020e+001 -5.492117e+001 4.225111e+000
      vertex   8.433020e+001 -2.320279e+001 4.225111e+000
      vertex   1.176253e+002 -2.320279e+001 4.225111e+000
    endloop
  endfacet
  facet normal 1.178796e-016 4.231749e-016 -1.000000e+000
    outer loop
      vertex   1.176253e+002 -2.320279e+001 4.225111e+000
      vertex   1.358364e+002 -5.492117e+001 4.225111e+000
      vertex   8.433020e+001 -5.492117e+001 4.225111e+000
    endloop
  endfacet
  facet normal -3.386595e-016 1.631655e-016 -1.000000e+000
    outer loop
      vertex   1.176253e+002 -1.396562e+001 4.225111e+000
      vertex   8.433020e+001 -1.396562e+001 4.225111e+000
      vertex   8.433020e+001 1.401937e+002 4.225111e+000
    endloop
  endfacet
  facet normal -6.187943e-017 0.000000e+000 -1.000000e+000
    outer loop
      vertex   -8.283727e+001 -5.492117e+001 4.225111e+000
      vertex   -8.283727e+001 1.401937e+002 4.225111e+000
      vertex   -6.882030e+001 -1.396562e+001 4.225111e+000
    endloop
  endfacet
  facet normal 1.306072e-016 -1.462863e-016 -1.000000e+000
    outer loop
      vertex   7.728160e+001 1.401937e+002 4.225111e+000
      vertex   7.728160e+001 -1.396562e+001 4.225111e+000
      vertex   -6.882030e+001 -1.396562e+001 4.225111e+000
    endloop
  endfacet
  facet normal 1.191737e-016 7.677062e-016 -1.000000e+000
    outer loop
      vertex   7.728160e+001 -5.492117e+001 4.225111e+000
      vertex   -8.283727e+001 -5.492117e+001 4.225111e+000
      vertex   -6.882030e+001 -2.320279e+001 4.225111e+000
    endloop
  endfacet
  facet normal -2.708493e-017 3.163695e-018 -1.000000e+000
    outer loop
      vertex   -6.882030e+001 -1.396562e+001 4.225111e+000
      vertex   -8.283727e+001 1.401937e+002 4.225111e+000
      vertex   7.728160e+001 1.401937e+002 4.225111e+000
    endloop
  endfacet
  facet normal 8.443272e-015 -2.910873e-015 -1.000000e+000
    outer loop
      vertex   -6.882030e+001 -1.396562e+001 4.225111e+000
      vertex   -6.882030e+001 -2.320279e+001 4.225111e+000
      vertex   -8.283727e+001 -5.492117e+001 4.225111e+000
    endloop
  endfacet
  facet normal -4.749352e-017 4.155981e-031 -1.000000e+000
    outer loop
      vertex   -6.882030e+001 -2.320279e+001 4.225111e+000
      vertex   7.728160e+001 -2.320279e+001 4.225111e+000
      vertex   7.728160e+001 -5.492117e+001 4.225111e+000
    endloop
  endfacet
  facet normal -1.702467e-001 -3.526580e-016 9.854015e-001
    outer loop
      vertex   -6.553118e+001 -5.492117e+001 -2.044849e+001
      vertex   7.728160e+001 -2.320279e+001 4.225111e+000
      vertex   -4.663111e+001 1.401937e+002 -1.718315e+001
    endloop
  endfacet
  facet normal -1.702467e-001 1.509473e-015 9.854015e-001
    outer loop
      vertex   -6.553118e+001 -5.492117e+001 -2.044849e+001
      vertex   7.728160e+001 -5.492117e+001 4.225111e+000
      vertex   7.728160e+001 -2.320279e+001 4.225111e+000
    endloop
  endfacet
  facet normal -1.702467e-001 -1.231285e-016 9.854015e-001
    outer loop
      vertex   -4.663111e+001 1.401937e+002 -1.718315e+001
      vertex   -6.553118e+001 1.401937e+002 -2.044849e+001
      vertex   -6.553118e+001 -5.492117e+001 -2.044849e+001
    endloop
  endfacet
  facet normal 1.702467e-001 -5.256592e-017 -9.854015e-001
    outer loop
      vertex   -5.848259e+001 -5.492117e+001 -2.044849e+001
      vertex   -5.848259e+001 1.401937e+002 -2.044849e+001
      vertex   -3.958251e+001 1.401937e+002 -1.718315e+001
    endloop
  endfacet
  facet normal 1.702467e-001 -1.195119e-016 -9.854015e-001
    outer loop
      vertex   -3.958251e+001 1.401937e+002 -1.718315e+001
      vertex   8.433020e+001 -2.320279e+001 4.225111e+000
      vertex   -5.848259e+001 -5.492117e+001 -2.044849e+001
    endloop
  endfacet
  facet normal 1.702467e-001 1.882802e-015 -9.854015e-001
    outer loop
      vertex   8.433020e+001 -2.320279e+001 4.225111e+000
      vertex   8.433020e+001 -5.492117e+001 4.225111e+000
      vertex   -5.848259e+001 -5.492117e+001 -2.044849e+001
    endloop
  endfacet
  facet normal -9.883558e-016 0.000000e+000 1.000000e+000
    outer loop
      vertex   -6.553118e+001 1.401937e+002 -2.044849e+001
      vertex   -8.659311e+001 1.401937e+002 -2.044849e+001
      vertex   -8.659311e+001 -5.492117e+001 -2.044849e+001
    endloop
  endfacet
  facet normal 1.647260e-016 -1.244709e-016 1.000000e+000
    outer loop
      vertex   -8.659311e+001 -5.492117e+001 -2.044849e+001
      vertex   -6.553118e+001 -5.492117e+001 -2.044849e+001
      vertex   -6.553118e+001 1.401937e+002 -2.044849e+001
    endloop
  endfacet
  facet normal -1.000000e+000 0.000000e+000 -0.000000e+000
    outer loop
      vertex   -8.659311e+001 1.401937e+002 -2.044849e+001
      vertex   -8.659311e+001 1.401937e+002 -2.164849e+001
      vertex   -8.659311e+001 -5.492117e+001 -2.164849e+001
    endloop
  endfacet
  facet normal -1.000000e+000 0.000000e+000 0.000000e+000
    outer loop
      vertex   -8.659311e+001 -5.492117e+001 -2.164849e+001
      vertex   -8.659311e+001 -5.492117e+001 -2.044849e+001
      vertex   -8.659311e+001 1.401937e+002 -2.044849e+001
    endloop
  endfacet
  facet normal 0.000000e+000 0.000000e+000 -1.000000e+000
    outer loop
      vertex   -8.659311e+001 -5.492117e+001 -2.164849e+001
      vertex   -8.659311e+001 1.401937e+002 -2.164849e+001
      vertex   -6.892155e+001 1.401937e+002 -2.164849e+001
    endloop
  endfacet
  facet normal 1.963294e-016 -1.778156e-017 -1.000000e+000
    outer loop
      vertex   -6.892155e+001 1.401937e+002 -2.164849e+001
      vertex   -6.892155e+001 -5.492117e+001 -2.164849e+001
      vertex   -8.659311e+001 -5.492117e+001 -2.164849e+001
    endloop
  endfacet
  facet normal -9.854015e-001 -0.000000e+000 -1.702467e-001
    outer loop
      vertex   -6.882030e+001 1.401937e+002 -2.223453e+001
      vertex   -6.882030e+001 -5.492117e+001 -2.223453e+001
      vertex   -6.892155e+001 -5.492117e+001 -2.164849e+001
    endloop
  endfacet
  facet normal -9.854015e-001 -3.027252e-018 -1.702467e-001
    outer loop
      vertex   -6.892155e+001 -5.492117e+001 -2.164849e+001
      vertex   -6.892155e+001 1.401937e+002 -2.164849e+001
      vertex   -6.882030e+001 1.401937e+002 -2.223453e+001
    endloop
  endfacet
  facet normal 1.702467e-001 -6.999347e-017 -9.854015e-001
    outer loop
      vertex   -6.882030e+001 1.401937e+002 -2.223453e+001
      vertex   -6.542828e+001 1.401937e+002 -2.164849e+001
      vertex   -6.542828e+001 -5.492117e+001 -2.164849e+001
    endloop
  endfacet
  facet normal 1.702467e-001 0.000000e+000 -9.854015e-001
    outer loop
      vertex   -6.542828e+001 -5.492117e+001 -2.164849e+001
      vertex   -6.882030e+001 -5.492117e+001 -2.223453e+001
      vertex   -6.882030e+001 1.401937e+002 -2.223453e+001
    endloop
  endfacet
  facet normal 0.000000e+000 1.000000e+000 0.000000e+000
    outer loop
      vertex   1.391750e+002 1.401937e+002 -2.164849e+001
      vertex   -6.542828e+001 1.401937e+002 -2.164849e+001
      vertex   -5.848259e+001 1.401937e+002 -2.044849e+001
    endloop
  endfacet
  facet normal 0.000000e+000 1.000000e+000 -0.000000e+000
    outer loop
      vertex   -5.848259e+001 1.401937e+002 -2.044849e+001
      vertex   -6.553118e+001 1.401937e+002 -2.044849e+001
      vertex   -4.663111e+001 1.401937e+002 -1.718315e+001
    endloop
  endfacet
  facet normal 0.000000e+000 1.000000e+000 0.000000e+000
    outer loop
      vertex   -5.848259e+001 1.401937e+002 -2.044849e+001
      vertex   1.391750e+002 1.401937e+002 -2.044849e+001
      vertex   1.391750e+002 1.401937e+002 -2.164849e+001
    endloop
  endfacet
  facet normal -0.000000e+000 1.000000e+000 0.000000e+000
    outer loop
      vertex   -4.663111e+001 1.401937e+002 -1.718315e+001
      vertex   -3.958251e+001 1.401937e+002 -1.718315e+001
      vertex   -5.848259e+001 1.401937e+002 -2.044849e+001
    endloop
  endfacet
  facet normal -0.000000e+000 1.000000e+000 0.000000e+000
    outer loop
      vertex   -8.659311e+001 1.401937e+002 -2.044849e+001
      vertex   -6.553118e+001 1.401937e+002 -2.044849e+001
      vertex   -6.892155e+001 1.401937e+002 -2.164849e+001
    endloop
  endfacet
  facet normal 0.000000e+000 1.000000e+000 -0.000000e+000
    outer loop
      vertex   -6.542828e+001 1.401937e+002 -2.164849e+001
      vertex   -6.892155e+001 1.401937e+002 -2.164849e+001
      vertex   -5.848259e+001 1.401937e+002 -2.044849e+001
    endloop
  endfacet
  facet normal 0.000000e+000 1.000000e+000 0.000000e+000
    outer loop
      vertex   -6.892155e+001 1.401937e+002 -2.164849e+001
      vertex   -8.659311e+001 1.401937e+002 -2.164849e+001
      vertex   -8.659311e+001 1.401937e+002 -2.044849e+001
    endloop
  endfacet
  facet normal 0.000000e+000 1.000000e+000 0.000000e+000
    outer loop
      vertex   -5.848259e+001 1.401937e+002 -2.044849e+001
      vertex   -6.892155e+001 1.401937e+002 -2.164849e+001
      vertex   -6.553118e+001 1.401937e+002 -2.044849e+001
    endloop
  endfacet
  facet normal 0.000000e+000 1.000000e+000 0.000000e+000
    outer loop
      vertex   -6.542828e+001 1.401937e+002 -2.164849e+001
      vertex   -6.882030e+001 1.401937e+002 -2.223453e+001
      vertex   -6.892155e+001 1.401937e+002 -2.164849e+001
    endloop
  endfacet
  facet normal 7.021127e-017 -0.000000e+000 1.000000e+000
    outer loop
      vertex   1.391750e+002 -5.492117e+001 -2.044849e+001
      vertex   1.391750e+002 1.401937e+002 -2.044849e+001
      vertex   -5.848259e+001 1.401937e+002 -2.044849e+001
    endloop
  endfacet
  facet normal 1.228697e-016 5.334467e-017 1.000000e+000
    outer loop
      vertex   -5.848259e+001 1.401937e+002 -2.044849e+001
      vertex   -5.848259e+001 -5.492117e+001 -2.044849e+001
      vertex   1.391750e+002 -5.492117e+001 -2.044849e+001
    endloop
  endfacet
  facet normal 1.865265e-016 0.000000e+000 -1.000000e+000
    outer loop
      vertex   -6.542828e+001 1.401937e+002 -2.164849e+001
      vertex   1.391750e+002 1.401937e+002 -2.164849e+001
      vertex   1.391750e+002 -5.492117e+001 -2.164849e+001
    endloop
  endfacet
  facet normal 1.186987e-016 -7.112623e-017 -1.000000e+000
    outer loop
      vertex   1.391750e+002 -5.492117e+001 -2.164849e+001
      vertex   -6.542828e+001 -5.492117e+001 -2.164849e+001
      vertex   -6.542828e+001 1.401937e+002 -2.164849e+001
    endloop
  endfacet
  facet normal 1.000000e+000 0.000000e+000 -0.000000e+000
    outer loop
      vertex   1.391750e+002 1.401937e+002 -2.164849e+001
      vertex   1.391750e+002 1.401937e+002 -2.044849e+001
      vertex   1.391750e+002 -5.492117e+001 -2.044849e+001
    endloop
  endfacet
  facet normal 1.000000e+000 0.000000e+000 0.000000e+000
    outer loop
      vertex   1.391750e+002 -5.492117e+001 -2.044849e+001
      vertex   1.391750e+002 -5.492117e+001 -2.164849e+001
      vertex   1.391750e+002 1.401937e+002 -2.164849e+001
    endloop
  endfacet
  facet normal 1.000000e+000 0.000000e+000 -0.000000e+000
    outer loop
      vertex   1.358364e+002 1.401937e+002 4.225111e+000
      vertex   1.358364e+002 1.401937e+002 5.425111e+000
      vertex   1.358364e+002 -5.492117e+001 5.425111e+000
    endloop
  endfacet
  facet normal 1.000000e+000 0.000000e+000 0.000000e+000
    outer loop
      vertex   1.358364e+002 -5.492117e+001 5.425111e+000
      vertex   1.358364e+002 -5.492117e+001 4.225111e+000
      vertex   1.358364e+002 1.401937e+002 4.225111e+000
    endloop
  endfacet
  facet normal -1.000000e+000 0.000000e+000 -0.000000e+000
    outer loop
      vertex   -8.283727e+001 1.401937e+002 5.425111e+000
      vertex   -8.283727e+001 1.401937e+002 4.225111e+000
      vertex   -8.283727e+001 -5.492117e+001 4.225111e+000
    endloop
  endfacet
  facet normal -1.000000e+000 0.000000e+000 0.000000e+000
    outer loop
      vertex   -8.283727e+001 -5.492117e+001 4.225111e+000
      vertex   -8.283727e+001 -5.492117e+001 5.425111e+000
      vertex   -8.283727e+001 1.401937e+002 5.425111e+000
    endloop
  endfacet
  facet normal 0.000000e+000 -1.000000e+000 0.000000e+000
    outer loop
      vertex   7.728160e+001 -5.492117e+001 4.225111e+000
      vertex   -6.553118e+001 -5.492117e+001 -2.044849e+001
      vertex   -5.848259e+001 -5.492117e+001 -2.044849e+001
    endloop
  endfacet
  facet normal 0.000000e+000 -1.000000e+000 -0.000000e+000
    outer loop
      vertex   -6.553118e+001 -5.492117e+001 -2.044849e+001
      vertex   -6.892155e+001 -5.492117e+001 -2.164849e+001
      vertex   -5.848259e+001 -5.492117e+001 -2.044849e+001
    endloop
  endfacet
  facet normal 0.000000e+000 -1.000000e+000 0.000000e+000
    outer loop
      vertex   1.358364e+002 -5.492117e+001 4.225111e+000
      vertex   1.358364e+002 -5.492117e+001 5.425111e+000
      vertex   9.127589e+001 -5.492117e+001 5.425111e+000
    endloop
  endfacet
  facet normal 0.000000e+000 -1.000000e+000 0.000000e+000
    outer loop
      vertex   -5.848259e+001 -5.492117e+001 -2.044849e+001
      vertex   8.433020e+001 -5.492117e+001 4.225111e+000
      vertex   7.728160e+001 -5.492117e+001 4.225111e+000
    endloop
  endfacet
  facet normal 0.000000e+000 -1.000000e+000 0.000000e+000
    outer loop
      vertex   1.391750e+002 -5.492117e+001 -2.164849e+001
      vertex   1.391750e+002 -5.492117e+001 -2.044849e+001
      vertex   -5.848259e+001 -5.492117e+001 -2.044849e+001
    endloop
  endfacet
  facet normal 0.000000e+000 -1.000000e+000 0.000000e+000
    outer loop
      vertex   -8.283727e+001 -5.492117e+001 5.425111e+000
      vertex   -8.283727e+001 -5.492117e+001 4.225111e+000
      vertex   7.728160e+001 -5.492117e+001 4.225111e+000
    endloop
  endfacet
  facet normal 0.000000e+000 -1.000000e+000 0.000000e+000
    outer loop
      vertex   -8.659311e+001 -5.492117e+001 -2.044849e+001
      vertex   -8.659311e+001 -5.492117e+001 -2.164849e+001
      vertex   -6.892155e+001 -5.492117e+001 -2.164849e+001
    endloop
  endfacet
  facet normal -0.000000e+000 -1.000000e+000 0.000000e+000
    outer loop
      vertex   8.433020e+001 -5.492117e+001 4.225111e+000
      vertex   9.127589e+001 -5.492117e+001 5.425111e+000
      vertex   7.728160e+001 -5.492117e+001 4.225111e+000
    endloop
  endfacet
  facet normal 0.000000e+000 -1.000000e+000 0.000000e+000
    outer loop
      vertex   -5.848259e+001 -5.492117e+001 -2.044849e+001
      vertex   -6.892155e+001 -5.492117e+001 -2.164849e+001
      vertex   -6.542828e+001 -5.492117e+001 -2.164849e+001
    endloop
  endfacet
  facet normal 0.000000e+000 -1.000000e+000 0.000000e+000
    outer loop
      vertex   7.728160e+001 -5.492117e+001 4.225111e+000
      vertex   9.127589e+001 -5.492117e+001 5.425111e+000
      vertex   8.422730e+001 -5.492117e+001 5.425111e+000
    endloop
  endfacet
  facet normal 0.000000e+000 -1.000000e+000 0.000000e+000
    outer loop
      vertex   1.013354e+002 -5.492117e+001 8.380862e+000
      vertex   8.422730e+001 -5.492117e+001 5.425111e+000
      vertex   9.127589e+001 -5.492117e+001 5.425111e+000
    endloop
  endfacet
  facet normal 0.000000e+000 -1.000000e+000 -0.000000e+000
    outer loop
      vertex   9.127589e+001 -5.492117e+001 5.425111e+000
      vertex   8.433020e+001 -5.492117e+001 4.225111e+000
      vertex   1.358364e+002 -5.492117e+001 4.225111e+000
    endloop
  endfacet
  facet normal 0.000000e+000 -1.000000e+000 0.000000e+000
    outer loop
      vertex   -6.892155e+001 -5.492117e+001 -2.164849e+001
      vertex   -6.882030e+001 -5.492117e+001 -2.223453e+001
      vertex   -6.542828e+001 -5.492117e+001 -2.164849e+001
    endloop
  endfacet
  facet normal 0.000000e+000 -1.000000e+000 0.000000e+000
    outer loop
      vertex   9.127589e+001 -5.492117e+001 5.425111e+000
      vertex   1.083840e+002 -5.492117e+001 8.380862e+000
      vertex   1.013354e+002 -5.492117e+001 8.380862e+000
    endloop
  endfacet
  facet normal 0.000000e+000 -1.000000e+000 -0.000000e+000
    outer loop
      vertex   -5.848259e+001 -5.492117e+001 -2.044849e+001
      vertex   -6.542828e+001 -5.492117e+001 -2.164849e+001
      vertex   1.391750e+002 -5.492117e+001 -2.164849e+001
    endloop
  endfacet
  facet normal 0.000000e+000 -1.000000e+000 0.000000e+000
    outer loop
      vertex   -6.892155e+001 -5.492117e+001 -2.164849e+001
      vertex   -6.553118e+001 -5.492117e+001 -2.044849e+001
      vertex   -8.659311e+001 -5.492117e+001 -2.044849e+001
    endloop
  endfacet
  facet normal 0.000000e+000 -1.000000e+000 0.000000e+000
    outer loop
      vertex   7.728160e+001 -5.492117e+001 4.225111e+000
      vertex   8.422730e+001 -5.492117e+001 5.425111e+000
      vertex   -8.283727e+001 -5.492117e+001 5.425111e+000
    endloop
  endfacet
  facet normal -1.702467e-001 -7.041508e-016 9.854015e-001
    outer loop
      vertex   8.422730e+001 -3.236167e+001 5.425111e+000
      vertex   8.422730e+001 -5.492117e+001 5.425111e+000
      vertex   1.013354e+002 -5.492117e+001 8.380862e+000
    endloop
  endfacet
  facet normal 1.702467e-001 -2.018820e-015 -9.854015e-001
    outer loop
      vertex   9.127589e+001 -5.492117e+001 5.425111e+000
      vertex   9.127589e+001 -3.236167e+001 5.425111e+000
      vertex   1.083840e+002 -5.492117e+001 8.380862e+000
    endloop
  endfacet
  facet normal 0.000000e+000 1.000000e+000 -0.000000e+000
    outer loop
      vertex   -3.257746e+001 1.401937e+002 -1.597289e+001
      vertex   -3.962605e+001 1.401937e+002 -1.597289e+001
      vertex   7.728160e+001 1.401937e+002 4.225111e+000
    endloop
  endfacet
  facet normal 0.000000e+000 1.000000e+000 0.000000e+000
    outer loop
      vertex   -8.283727e+001 1.401937e+002 5.425111e+000
      vertex   8.422730e+001 1.401937e+002 5.425111e+000
      vertex   7.728160e+001 1.401937e+002 4.225111e+000
    endloop
  endfacet
  facet normal 0.000000e+000 1.000000e+000 0.000000e+000
    outer loop
      vertex   7.728160e+001 1.401937e+002 4.225111e+000
      vertex   9.127589e+001 1.401937e+002 5.425111e+000
      vertex   8.433020e+001 1.401937e+002 4.225111e+000
    endloop
  endfacet
  facet normal 0.000000e+000 1.000000e+000 0.000000e+000
    outer loop
      vertex   1.358364e+002 1.401937e+002 4.225111e+000
      vertex   8.433020e+001 1.401937e+002 4.225111e+000
      vertex   9.127589e+001 1.401937e+002 5.425111e+000
    endloop
  endfacet
  facet normal 0.000000e+000 1.000000e+000 0.000000e+000
    outer loop
      vertex   1.174210e+002 1.401937e+002 1.115995e+001
      vertex   1.176253e+002 1.401937e+002 9.977467e+000
      vertex   9.127589e+001 1.401937e+002 5.425111e+000
    endloop
  endfacet
  facet normal 0.000000e+000 1.000000e+000 0.000000e+000
    outer loop
      vertex   7.728160e+001 1.401937e+002 4.225111e+000
      vertex   -8.283727e+001 1.401937e+002 4.225111e+000
      vertex   -8.283727e+001 1.401937e+002 5.425111e+000
    endloop
  endfacet
  facet normal -0.000000e+000 1.000000e+000 0.000000e+000
    outer loop
      vertex   9.127589e+001 1.401937e+002 5.425111e+000
      vertex   1.358364e+002 1.401937e+002 5.425111e+000
      vertex   1.358364e+002 1.401937e+002 4.225111e+000
    endloop
  endfacet
  facet normal 0.000000e+000 1.000000e+000 0.000000e+000
    outer loop
      vertex   8.422730e+001 1.401937e+002 5.425111e+000
      vertex   9.127589e+001 1.401937e+002 5.425111e+000
      vertex   7.728160e+001 1.401937e+002 4.225111e+000
    endloop
  endfacet
  facet normal 0.000000e+000 1.000000e+000 -0.000000e+000
    outer loop
      vertex   9.127589e+001 1.401937e+002 5.425111e+000
      vertex   8.422730e+001 1.401937e+002 5.425111e+000
      vertex   1.174210e+002 1.401937e+002 1.115995e+001
    endloop
  endfacet
  facet normal -0.000000e+000 1.000000e+000 0.000000e+000
    outer loop
      vertex   7.728160e+001 1.401937e+002 4.225111e+000
      vertex   8.433020e+001 1.401937e+002 4.225111e+000
      vertex   -3.257746e+001 1.401937e+002 -1.597289e+001
    endloop
  endfacet
  facet normal 9.854015e-001 0.000000e+000 1.702467e-001
    outer loop
      vertex   1.174210e+002 -5.492117e+001 1.115995e+001
      vertex   1.176253e+002 -5.492117e+001 9.977467e+000
      vertex   1.176253e+002 1.401937e+002 9.977467e+000
    endloop
  endfacet
  facet normal 9.854015e-001 0.000000e+000 1.702467e-001
    outer loop
      vertex   1.176253e+002 1.401937e+002 9.977467e+000
      vertex   1.174210e+002 1.401937e+002 1.115995e+001
      vertex   1.174210e+002 -5.492117e+001 1.115995e+001
    endloop
  endfacet
  facet normal -1.702467e-001 0.000000e+000 9.854015e-001
    outer loop
      vertex   1.174210e+002 -5.492117e+001 1.115995e+001
      vertex   1.174210e+002 1.401937e+002 1.115995e+001
      vertex   8.422730e+001 -2.312451e+001 5.425111e+000
    endloop
  endfacet
  facet normal -1.702467e-001 5.419582e-017 9.854015e-001
    outer loop
      vertex   1.174210e+002 1.401937e+002 1.115995e+001
      vertex   8.422730e+001 1.401937e+002 5.425111e+000
      vertex   8.422730e+001 -2.312451e+001 5.425111e+000
    endloop
  endfacet
  facet normal -1.702467e-001 -2.127645e-015 9.854015e-001
    outer loop
      vertex   8.422730e+001 -2.312451e+001 5.425111e+000
      vertex   1.083405e+002 -5.492117e+001 9.591118e+000
      vertex   1.174210e+002 -5.492117e+001 1.115995e+001
    endloop
  endfacet
  facet normal 1.702467e-001 1.596453e-015 -9.854015e-001
    outer loop
      vertex   1.176253e+002 -5.492117e+001 9.977467e+000
      vertex   1.153891e+002 -5.492117e+001 9.591118e+000
      vertex   9.127589e+001 -2.312451e+001 5.425111e+000
    endloop
  endfacet
  facet normal 1.702467e-001 0.000000e+000 -9.854015e-001
    outer loop
      vertex   9.127589e+001 -2.312451e+001 5.425111e+000
      vertex   1.176253e+002 1.401937e+002 9.977467e+000
      vertex   1.176253e+002 -5.492117e+001 9.977467e+000
    endloop
  endfacet
  facet normal 1.702467e-001 1.455634e-016 -9.854015e-001
    outer loop
      vertex   9.127589e+001 -2.312451e+001 5.425111e+000
      vertex   9.127589e+001 1.401937e+002 5.425111e+000
      vertex   1.176253e+002 1.401937e+002 9.977467e+000
    endloop
  endfacet
  facet normal 0.000000e+000 -1.000000e+000 0.000000e+000
    outer loop
      vertex   1.174210e+002 -5.492117e+001 1.115995e+001
      vertex   1.083405e+002 -5.492117e+001 9.591118e+000
      vertex   1.153891e+002 -5.492117e+001 9.591118e+000
    endloop
  endfacet
  facet normal 0.000000e+000 -1.000000e+000 0.000000e+000
    outer loop
      vertex   1.153891e+002 -5.492117e+001 9.591118e+000
      vertex   1.176253e+002 -5.492117e+001 9.977467e+000
      vertex   1.174210e+002 -5.492117e+001 1.115995e+001
    endloop
  endfacet
  facet normal 1.167888e-016 -6.746773e-016 1.000000e+000
    outer loop
      vertex   9.127589e+001 -5.492117e+001 5.425111e+000
      vertex   1.358364e+002 -5.492117e+001 5.425111e+000
      vertex   1.176253e+002 -3.236167e+001 5.425111e+000
    endloop
  endfacet
  facet normal -6.191655e-016 0.000000e+000 1.000000e+000
    outer loop
      vertex   1.358364e+002 -5.492117e+001 5.425111e+000
      vertex   1.358364e+002 1.401937e+002 5.425111e+000
      vertex   1.176253e+002 -2.312451e+001 5.425111e+000
    endloop
  endfacet
  facet normal 4.791120e-015 3.098671e-015 1.000000e+000
    outer loop
      vertex   1.176253e+002 -2.312451e+001 5.425111e+000
      vertex   1.176253e+002 -3.236167e+001 5.425111e+000
      vertex   1.358364e+002 -5.492117e+001 5.425111e+000
    endloop
  endfacet
  facet normal 7.571071e-016 1.752587e-016 1.000000e+000
    outer loop
      vertex   9.127589e+001 1.401937e+002 5.425111e+000
      vertex   9.127589e+001 -2.312451e+001 5.425111e+000
      vertex   1.176253e+002 -2.312451e+001 5.425111e+000
    endloop
  endfacet
  facet normal -4.476904e-016 -1.912068e-017 1.000000e+000
    outer loop
      vertex   1.176253e+002 -2.312451e+001 5.425111e+000
      vertex   1.358364e+002 1.401937e+002 5.425111e+000
      vertex   9.127589e+001 1.401937e+002 5.425111e+000
    endloop
  endfacet
  facet normal -3.950124e-016 -7.689550e-017 1.000000e+000
    outer loop
      vertex   1.176253e+002 -3.236167e+001 5.425111e+000
      vertex   9.127589e+001 -3.236167e+001 5.425111e+000
      vertex   9.127589e+001 -5.492117e+001 5.425111e+000
    endloop
  endfacet
  facet normal -4.897887e-015 3.004772e-015 1.000000e+000
    outer loop
      vertex   -8.283727e+001 -5.492117e+001 5.425111e+000
      vertex   -6.882030e+001 -3.236167e+001 5.425111e+000
      vertex   -6.882030e+001 -2.312451e+001 5.425111e+000
    endloop
  endfacet
  facet normal 1.303472e-016 -7.689550e-017 1.000000e+000
    outer loop
      vertex   8.422730e+001 -5.492117e+001 5.425111e+000
      vertex   8.422730e+001 -3.236167e+001 5.425111e+000
      vertex   -6.882030e+001 -3.236167e+001 5.425111e+000
    endloop
  endfacet
  facet normal 7.268486e-017 -1.583987e-016 1.000000e+000
    outer loop
      vertex   8.422730e+001 1.401937e+002 5.425111e+000
      vertex   -8.283727e+001 1.401937e+002 5.425111e+000
      vertex   -6.882030e+001 -2.312451e+001 5.425111e+000
    endloop
  endfacet
  facet normal 1.246026e-016 -1.158675e-016 1.000000e+000
    outer loop
      vertex   -6.882030e+001 -3.236167e+001 5.425111e+000
      vertex   -8.283727e+001 -5.492117e+001 5.425111e+000
      vertex   8.422730e+001 -5.492117e+001 5.425111e+000
    endloop
  endfacet
  facet normal 1.918262e-015 0.000000e+000 1.000000e+000
    outer loop
      vertex   -6.882030e+001 -2.312451e+001 5.425111e+000
      vertex   -8.283727e+001 1.401937e+002 5.425111e+000
      vertex   -8.283727e+001 -5.492117e+001 5.425111e+000
    endloop
  endfacet
  facet normal -4.533814e-017 -4.779782e-017 1.000000e+000
    outer loop
      vertex   -6.882030e+001 -2.312451e+001 5.425111e+000
      vertex   8.422730e+001 -2.312451e+001 5.425111e+000
      vertex   8.422730e+001 1.401937e+002 5.425111e+000
    endloop
  endfacet
  facet normal -1.236701e-016 1.299100e-001 9.915258e-001
    outer loop
      vertex   -6.882030e+001 -6.238814e+001 1.056944e+001
      vertex   1.083405e+002 -5.492117e+001 9.591118e+000
      vertex   8.422730e+001 -2.312451e+001 5.425111e+000
    endloop
  endfacet
  facet normal 1.468065e-015 1.299100e-001 9.915258e-001
    outer loop
      vertex   1.176253e+002 -6.238814e+001 1.056944e+001
      vertex   1.153891e+002 -5.492117e+001 9.591118e+000
      vertex   1.083405e+002 -5.492117e+001 9.591118e+000
    endloop
  endfacet
  facet normal 0.000000e+000 1.299100e-001 9.915258e-001
    outer loop
      vertex   1.083405e+002 -5.492117e+001 9.591118e+000
      vertex   -6.882030e+001 -6.238814e+001 1.056944e+001
      vertex   1.176253e+002 -6.238814e+001 1.056944e+001
    endloop
  endfacet
  facet normal -4.808942e-016 1.299100e-001 9.915258e-001
    outer loop
      vertex   1.176253e+002 -2.312451e+001 5.425111e+000
      vertex   9.127589e+001 -2.312451e+001 5.425111e+000
      vertex   1.153891e+002 -5.492117e+001 9.591118e+000
    endloop
  endfacet
  facet normal 2.448719e-015 1.299100e-001 9.915258e-001
    outer loop
      vertex   1.153891e+002 -5.492117e+001 9.591118e+000
      vertex   1.176253e+002 -6.238814e+001 1.056944e+001
      vertex   1.176253e+002 -2.312451e+001 5.425111e+000
    endloop
  endfacet
  facet normal 1.553019e-016 1.299100e-001 9.915258e-001
    outer loop
      vertex   8.422730e+001 -2.312451e+001 5.425111e+000
      vertex   -6.882030e+001 -2.312451e+001 5.425111e+000
      vertex   -6.882030e+001 -6.238814e+001 1.056944e+001
    endloop
  endfacet
  facet normal -0.000000e+000 -1.299100e-001 -9.915258e-001
    outer loop
      vertex   1.176253e+002 -6.254403e+001 9.379611e+000
      vertex   -6.882030e+001 -6.254403e+001 9.379611e+000
      vertex   1.013354e+002 -5.492117e+001 8.380862e+000
    endloop
  endfacet
  facet normal 1.454503e-017 -1.299100e-001 -9.915258e-001
    outer loop
      vertex   -6.882030e+001 -6.254403e+001 9.379611e+000
      vertex   -6.882030e+001 -3.236167e+001 5.425111e+000
      vertex   8.422730e+001 -3.236167e+001 5.425111e+000
    endloop
  endfacet
  facet normal 5.781231e-016 -1.299100e-001 -9.915258e-001
    outer loop
      vertex   1.176253e+002 -3.236167e+001 5.425111e+000
      vertex   1.176253e+002 -6.254403e+001 9.379611e+000
      vertex   1.083840e+002 -5.492117e+001 8.380862e+000
    endloop
  endfacet
  facet normal 3.047062e-017 -1.299100e-001 -9.915258e-001
    outer loop
      vertex   8.422730e+001 -3.236167e+001 5.425111e+000
      vertex   1.013354e+002 -5.492117e+001 8.380862e+000
      vertex   -6.882030e+001 -6.254403e+001 9.379611e+000
    endloop
  endfacet
  facet normal -1.708165e-015 -1.299100e-001 -9.915258e-001
    outer loop
      vertex   1.013354e+002 -5.492117e+001 8.380862e+000
      vertex   1.083840e+002 -5.492117e+001 8.380862e+000
      vertex   1.176253e+002 -6.254403e+001 9.379611e+000
    endloop
  endfacet
  facet normal -4.295144e-016 -1.299100e-001 -9.915258e-001
    outer loop
      vertex   1.083840e+002 -5.492117e+001 8.380862e+000
      vertex   9.127589e+001 -3.236167e+001 5.425111e+000
      vertex   1.176253e+002 -3.236167e+001 5.425111e+000
    endloop
  endfacet
  facet normal 0.000000e+000 -9.915258e-001 1.299100e-001
    outer loop
      vertex   1.176253e+002 -6.254403e+001 9.379611e+000
      vertex   1.176253e+002 -6.238814e+001 1.056944e+001
      vertex   -6.882030e+001 -6.238814e+001 1.056944e+001
    endloop
  endfacet
  facet normal 0.000000e+000 -9.915258e-001 1.299100e-001
    outer loop
      vertex   -6.882030e+001 -6.238814e+001 1.056944e+001
      vertex   -6.882030e+001 -6.254403e+001 9.379611e+000
      vertex   1.176253e+002 -6.254403e+001 9.379611e+000
    endloop
  endfacet
  facet normal 1.000000e+000 0.000000e+000 0.000000e+000
    outer loop
      vertex   1.176253e+002 -6.238814e+001 1.056944e+001
      vertex   1.176253e+002 -6.254403e+001 9.379611e+000
      vertex   1.176253e+002 -3.236167e+001 5.425111e+000
    endloop
  endfacet
  facet normal 1.000000e+000 -0.000000e+000 -0.000000e+000
    outer loop
      vertex   1.176253e+002 -3.236167e+001 5.425111e+000
      vertex   1.176253e+002 -2.312451e+001 5.425111e+000
      vertex   1.176253e+002 -6.238814e+001 1.056944e+001
    endloop
  endfacet
  facet normal -1.000000e+000 0.000000e+000 0.000000e+000
    outer loop
      vertex   -6.882030e+001 -6.238814e+001 1.056944e+001
      vertex   -6.882030e+001 -2.312451e+001 5.425111e+000
      vertex   -6.882030e+001 -3.236167e+001 5.425111e+000
    endloop
  endfacet
  facet normal -1.000000e+000 0.000000e+000 0.000000e+000
    outer loop
      vertex   -6.882030e+001 -3.236167e+001 5.425111e+000
      vertex   -6.882030e+001 -6.254403e+001 9.379611e+000
      vertex   -6.882030e+001 -6.238814e+001 1.056944e+001
    endloop
  endfacet
endsolid
